<svg fill="#000000" xmlns="http://www.w3.org/2000/svg"  viewBox="0 0 50 50" width="50px" height="50px"><path d="M24 9.436L15 2.026 15 34.958 24 31.665zM26 9.436L26 31.665 35 34.958 35 2.026zM22.824 40L24 40 24 48 26 48 26 40 27.176 40 28 38 22 38zM18 38h-3v10h3c1.103 0 2-.897 2-2v-2c0-.366-.106-.705-.278-1C19.894 42.705 20 42.366 20 42v-2C20 38.897 19.103 38 18 38zM17 40h1l.002 2H18h-1V40zM17 46v-2h1l.002 2H17zM33 38h-1c-1.103 0-2 .897-2 2v1.465c0 .67.333 1.292.891 1.664L33 44.535V46h-1v-1h-2v1c0 1.103.897 2 2 2h1c1.103 0 2-.897 2-2v-1.465c0-.67-.333-1.292-.891-1.664L32 41.465V40h1v1h2v-1C35 38.897 34.103 38 33 38z"/></svg>